:SAMPLES-PER-SECOND 30
:FULLY-SPECIFIED
:DEGREES
117
root  -23.11044378 37.96755573 44.54977681 2.185930014 -0.3708352447 6.108029842
lowerback  6.921179771 -1.913319945 -6.278989792
upperback  0.9981139898 -2.945189953 2.407730103
thorax  -2.398499966 -1.412909985 6.30177021
lowerneck  -13.5447998 6.091919899 -1.180330038
upperneck  27.48069954 8.766750336 0.7523235083
head  11.01650047 3.952660084 1.631469965
lclavicle  0 -5.34481991e-014 2.981770104e-014
lhumerus  -21.41990089 -1.487719655 88.66449738
lradius  0.003583191894 6.643666666e-007 31.48830032
lwrist  -1.645157397e-007 -3.533851896e-007 -5.298230171
lhand  -5.505032044e-031 -15.8135004 33.60620117
lfingers  90 7.125020027 -90
lthumb  93.41605384 18.01962653 79.07819387
rclavicle  0 -5.34481991e-014 2.981770104e-014
rhumerus  -41.52130127 -22.82619858 -67.91549683
rradius  -1.296506525e-006 2.359789448e-007 40.56719971
rwrist  -2.281664457e-008 -8.593936229e-009 14.4126997
rhand  -1.345748685e-031 10.2737999 9.996669769
rfingers  -90 -7.125020027 -90
rthumb  -72.52445805 -22.91766803 -51.04506765
rfemur  -37.7560997 -1.804409623 14.57140064
rtibia  9.670418422e-007 1.119611625e-006 41.82199478
rfoot  2.556521167e-006 -10.96409512 -1.881039262
rtoes  2.336001174 19.8686595 -96.84438506
lfemur  6.542889118 -1.804481626 -30.93579483
ltibia  -3.641206786e-005 2.004581745e-007 19.22101784
lfoot  -5.693161143e-007 -17.10210609 -0.5954517722
ltoes  -5.298979543 -19.31302686 -105.6655569
118
root  -23.11888867 37.98911027 44.84088928 2.254379988 -0.3555240631 5.824069977
lowerback  6.888989925 -2.002779961 -5.779739857
upperback  1.038339972 -3.018640041 2.629070044
thorax  -2.341279984 -1.456689954 6.25342989
lowerneck  -13.60690022 6.162230015 -1.221199989
upperneck  27.45960045 8.83619976 0.8889417648
head  11.00959969 3.997009993 1.697289944
lclavicle  0 -5.34481991e-014 2.981770104e-014
lhumerus  -21.88360023 -1.566739678 88.89929962
lradius  0.003583191894 6.643666666e-007 31.35659981
lwrist  -1.645157397e-007 -3.533851896e-007 -5.535590172
lhand  -5.505032044e-031 -15.8135004 33.60620117
lfingers  90 7.125020027 -90
lthumb  93.41605384 18.01962653 79.07819387
rclavicle  0 -5.34481991e-014 2.981770104e-014
rhumerus  -41.4844017 -23.1903019 -67.61430359
rradius  -1.296506525e-006 2.359789448e-007 40.46360016
rwrist  -2.281664457e-008 -8.593936229e-009 14.70919991
rhand  -1.345748685e-031 10.2737999 9.996669769
rfingers  -90 -7.125020027 -90
rthumb  -72.52445805 -22.91766803 -51.04506765
rfemur  -37.50320435 -1.966330409 14.9340992
rtibia  9.670418422e-007 1.119611625e-006 42.11959839
rfoot  2.556521167e-006 -11.36099815 -1.501270533
rtoes  2.336001174 19.8686595 -96.84438506
lfemur  6.58494854 -1.964042544 -30.6648922
ltibia  -3.641206786e-005 2.004581745e-007 19.91122246
lfoot  -5.693161143e-007 -17.12201118 -0.4755339921
ltoes  -5.298979543 -19.31302686 -105.6655569
119
root  -23.15622165 38.02133395 45.11155557 2.512990236 -0.5197612047 5.311580181
lowerback  6.84487009 -2.001699924 -5.234469891
upperback  1.01733005 -2.96649003 2.93701005
thorax  -2.357800007 -1.433320045 6.262469769
lowerneck  -13.80620003 6.17373991 -1.177029967
upperneck  27.47240067 8.831520081 0.9325610995
head  11.05360031 4.002019882 1.713900089
lclavicle  0 -5.34481991e-014 2.981770104e-014
lhumerus  -22.31069946 -1.652400255 89.1167984
lradius  0.003583191894 6.643666666e-007 31.18729973
lwrist  -1.645157397e-007 -3.533851896e-007 -5.885489941
lhand  -5.505032044e-031 -15.8135004 33.60620117
lfingers  90 7.125020027 -90
lthumb  93.41605384 18.01962653 79.07819387
rclavicle  0 -5.34481991e-014 2.981770104e-014
rhumerus  -41.63439941 -23.45149994 -67.3635025
rradius  -1.296506525e-006 2.359789448e-007 40.64490128
rwrist  -2.281664457e-008 -8.593936229e-009 14.72060013
rhand  -1.345748685e-031 10.2737999 9.996669769
rfingers  -90 -7.125020027 -90
rthumb  -72.52445805 -22.91766803 -51.04506765
rfemur  -37.51059723 -1.725380182 15.57460117
rtibia  9.670418422e-007 1.119611625e-006 42.31280136
rfoot  2.556521167e-006 -11.44390678 -1.591579437
rtoes  2.336001174 19.8686595 -96.84438506
lfemur  6.507676125 -2.125419617 -30.09620285
ltibia  -3.641206786e-005 2.004581745e-007 20.38519287
lfoot  -5.693161143e-007 -16.77199745 -0.4095306993
ltoes  -5.298979543 -19.31302686 -105.6655569
120
root  -23.20155497 38.05355463 45.37111117 2.747849941 -0.7447029948 5.00345993
lowerback  6.837679863 -1.992980123 -4.952849865
upperback  1.016589999 -2.926680088 3.200750113
thorax  -2.360610008 -1.415259957 6.377449989
lowerneck  -14.02859974 6.302390099 -1.004209995
upperneck  27.46299934 9.016300201 0.7828537822
head  11.10980034 4.082129955 1.666479945
lclavicle  0 -5.34481991e-014 2.981770104e-014
lhumerus  -22.69029999 -1.469889641 89.28849792
lradius  0.003583191894 6.643666666e-007 30.95470047
lwrist  -1.645157397e-007 -3.533851896e-007 -6.350790024
lhand  -5.505032044e-031 -15.8135004 33.60620117
lfingers  90 7.125020027 -90
lthumb  93.41605384 18.01962653 79.07819387
rclavicle  0 -5.34481991e-014 2.981770104e-014
rhumerus  -41.74119949 -23.52930069 -67.20629883
rradius  -1.296506525e-006 2.359789448e-007 40.82329941
rwrist  -2.281664457e-008 -8.593936229e-009 14.48950005
rhand  -1.345748685e-031 10.2737999 9.996669769
rfingers  -90 -7.125020027 -90
rthumb  -72.52445805 -22.91766803 -51.04506765
rfemur  -37.49899673 -1.280760765 15.97609711
rtibia  9.670418422e-007 1.119611625e-006 42.46129227
rfoot  2.556521167e-006 -11.31949711 -2.03916049
rtoes  2.336001174 19.8686595 -96.84438506
lfemur  6.45794487 -2.325089931 -29.7548008
ltibia  -3.641206786e-005 2.004581745e-007 20.81000519
lfoot  -5.693161143e-007 -16.21489906 -0.3401561081
ltoes  -5.298979543 -19.31302686 -105.6655569
121
root  -23.21933386 38.08111056 45.663332 2.720999718 -0.7994663119 5.274680138
lowerback  6.890480042 -2.039350033 -5.077219963
upperback  1.11473 -2.997550011 3.27512002
thorax  -2.266979933 -1.455829978 6.532120228
lowerneck  -14.14210033 6.508029938 -0.8239279985
upperneck  27.44519997 9.277689934 0.7286011577
head  11.13560009 4.21130991 1.65723002
lclavicle  0 -5.34481991e-014 2.981770104e-014
lhumerus  -23.17029953 -1.28881979 89.46060181
lradius  0.003583191894 6.643666666e-007 30.86580086
lwrist  -1.645157397e-007 -3.533851896e-007 -6.563499928
lhand  -5.505032044e-031 -15.8135004 33.60620117
lfingers  90 7.125020027 -90
lthumb  93.41605384 18.01962653 79.07819387
rclavicle  0 -5.34481991e-014 2.981770104e-014
rhumerus  -41.62390137 -23.83009911 -66.93650055
rradius  -1.296506525e-006 2.359789448e-007 40.61830139
rwrist  -2.281664457e-008 -8.593936229e-009 14.43889999
rhand  -1.345748685e-031 10.2737999 9.996669769
rfingers  -90 -7.125020027 -90
rthumb  -72.52445805 -22.91766803 -51.04506765
rfemur  -37.11650467 -1.387849569 15.74170303
rtibia  9.670418422e-007 1.119611625e-006 42.60860443
rfoot  2.556521167e-006 -11.28709984 -2.173048735
rtoes  2.336001174 19.8686595 -96.84438506
lfemur  6.660769939 -2.519492865 -30.10789108
ltibia  -3.641206786e-005 2.004581745e-007 21.34693336
lfoot  -5.693161143e-007 -15.71751213 -0.1863695681
ltoes  -5.298979543 -19.31302686 -105.6655569
122
root  -23.22666739 38.11489015 45.9684447 2.736860037 -0.7977198958 5.545410156
lowerback  7.014500141 -2.105360031 -5.102220058
upperback  1.103929996 -3.090830088 3.329390049
thorax  -2.329070091 -1.49969995 6.617990017
lowerneck  -14.21889973 6.630430222 -0.5817210078
upperneck  27.53849983 9.415821075 0.645511806
head  11.20349979 4.284510136 1.613889933
lclavicle  0 -5.34481991e-014 2.981770104e-014
lhumerus  -23.92550087 -1.019510388 89.61360168
lradius  0.003583191894 6.643666666e-007 30.90239906
lwrist  -1.645157397e-007 -3.533851896e-007 -6.933740139
lhand  -5.505032044e-031 -15.8135004 33.60620117
lfingers  90 7.125020027 -90
lthumb  93.41605384 18.01962653 79.07819387
rclavicle  0 -5.34481991e-014 2.981770104e-014
rhumerus  -41.70149994 -24.24110031 -66.52850342
rradius  -1.296506525e-006 2.359789448e-007 40.38280106
rwrist  -2.281664457e-008 -8.593936229e-009 14.77260017
rhand  -1.345748685e-031 10.2737999 9.996669769
rfingers  -90 -7.125020027 -90
rthumb  -72.52445805 -22.91766803 -51.04506765
rfemur  -36.73720169 -1.704640627 15.50479889
rtibia  9.670418422e-007 1.119611625e-006 42.7304039
rfoot  2.556521167e-006 -11.44580078 -2.013881207
rtoes  2.336001174 19.8686595 -96.84438506
lfemur  6.730233669 -2.73623085 -30.46579742
ltibia  -3.641206786e-005 2.004581745e-007 22.04261398
lfoot  -5.693161143e-007 -15.21080685 -0.1975611597
ltoes  -5.298979543 -19.31302686 -105.6655569
123
root  -23.25288818 38.17155493 46.25511169 2.894340038 -0.9665032625 5.333610058
lowerback  7.179959774 -2.080760002 -4.771890163
upperback  1.005270004 -3.033060074 3.532310009
thorax  -2.539160013 -1.462769985 6.652619839
lowerneck  -14.18710041 6.674759865 -0.3865379989
upperneck  27.52090073 9.457539558 0.5341559649
head  11.20800018 4.310120106 1.546830058
lclavicle  0 -5.34481991e-014 2.981770104e-014
lhumerus  -24.78479958 -0.7203353643 89.76879883
lradius  0.003583191894 6.643666666e-007 30.95529938
lwrist  -1.645157397e-007 -3.533851896e-007 -7.291540146
lhand  -5.505032044e-031 -15.8135004 33.60620117
lfingers  90 7.125020027 -90
lthumb  93.41605384 18.01962653 79.07819387
rclavicle  0 -5.34481991e-014 2.981770104e-014
rhumerus  -42.00669861 -24.59860039 -66.10119629
rradius  -1.296506525e-006 2.359789448e-007 40.35279846
rwrist  -2.281664457e-008 -8.593936229e-009 14.9513998
rhand  -1.345748685e-031 10.2737999 9.996669769
rfingers  -90 -7.125020027 -90
rthumb  -72.52445805 -22.91766803 -51.04506765
rfemur  -36.48540878 -1.634959936 15.82629871
rtibia  9.670418422e-007 1.119611625e-006 42.75271225
rfoot  2.556521167e-006 -11.63870525 -1.947981834
rtoes  2.336001174 19.8686595 -96.84438506
lfemur  6.417191982 -2.87643218 -30.26179314
ltibia  -3.641206786e-005 2.004581745e-007 22.92962074
lfoot  -5.693161143e-007 -14.52141476 -0.2728293836
ltoes  -5.298979543 -19.31302686 -105.6655569
